<svg width="512" height="512" viewBox="0 0 512 512" fill="none" xmlns="http://www.w3.org/2000/svg">
<g clip-path="url(#clip0_277_2)">
<rect width="512" height="512" fill="url(#paint0_linear_277_2)"/>
<path d="M184.021 410.694L155.682 459.335L38.3484 344.983C51.5871 348.353 63.6355 346.749 74.4933 340.173C85.6689 333.271 96.0213 324.93 105.551 315.153C116.351 304.071 128.813 297.152 142.939 294.396C145.331 280.204 151.927 267.567 162.727 256.486C175.75 243.123 191.105 235.845 208.79 234.652C226.794 233.133 241.988 238.408 254.373 250.479L298.373 293.361L270.034 342.001L216.256 289.59C213.649 287.049 210.414 285.803 206.553 285.853C202.691 285.903 199.49 287.231 196.949 289.839C194.408 292.446 193.162 295.68 193.212 299.542C193.261 303.403 194.59 306.605 197.197 309.146L241.197 352.028L212.858 400.668L159.08 348.257C156.473 345.716 153.238 344.47 149.377 344.52C145.515 344.569 142.314 345.898 139.773 348.505C137.232 351.113 135.986 354.347 136.036 358.209C136.085 362.07 137.414 365.271 140.021 367.812L184.021 410.694ZM355.717 234.522L327.377 283.163L210.044 168.811C223.283 172.181 235.331 170.577 246.189 164.001C257.364 157.098 267.717 148.758 277.246 138.98C288.046 127.899 300.509 120.98 314.634 118.224C317.026 104.032 323.622 91.3952 334.422 80.3137C347.446 66.9508 362.8 59.6727 380.486 58.4796C398.489 56.9606 413.684 62.2363 426.069 74.3068L470.069 117.189L441.73 165.829L387.952 113.418C385.344 110.877 382.11 109.631 378.248 109.681C374.387 109.73 371.186 111.059 368.645 113.666C366.103 116.274 364.858 119.508 364.907 123.37C364.957 127.231 366.286 130.432 368.893 132.974L412.893 175.856L384.553 224.496L330.776 172.085C328.168 169.544 324.934 168.298 321.072 168.348C317.211 168.397 314.01 169.726 311.468 172.333C308.927 174.941 307.682 178.175 307.731 182.036C307.781 185.898 309.11 189.099 311.717 191.64L355.717 234.522Z" fill="white"/>
</g>
<defs>
<linearGradient id="paint0_linear_277_2" x1="256" y1="0" x2="256" y2="512" gradientUnits="userSpaceOnUse">
<stop stop-color="#3A0CA3"/>
<stop offset="1" stop-color="#B5179E"/>
</linearGradient>
<clipPath id="clip0_277_2">
<rect width="512" height="512" fill="white"/>
</clipPath>
</defs>
</svg>
