<svg width="512" height="513" viewBox="0 0 512 513" fill="none" xmlns="http://www.w3.org/2000/svg">
<rect width="512" height="512" transform="translate(0 0.25)" fill="url(#paint0_linear_277_2)"/>
<path d="M128.746 467.25C124.746 467.25 122.746 465.25 122.746 461.25L150.346 59.25C150.346 55.25 152.346 53.25 156.346 53.25C158.346 53.25 160.146 54.05 161.746 55.65L236.746 122.85C243.946 129.25 250.346 135.45 255.946 141.45C261.546 135.45 267.946 129.25 275.146 122.85L350.146 55.65C351.746 54.05 353.546 53.25 355.546 53.25C359.546 53.25 361.546 55.25 361.546 59.25L389.146 461.25C389.146 465.25 387.146 467.25 383.146 467.25C378.746 467.25 376.546 465.25 376.546 461.25L350.146 73.05L282.946 132.45C275.746 138.85 269.546 145.05 264.346 151.05C272.346 161.05 277.946 170.65 281.146 179.85C284.746 189.05 286.546 198.45 286.546 208.05C286.546 218.85 284.546 228.65 280.546 237.45C276.946 246.25 272.746 254.85 267.946 263.25C265.946 266.85 264.346 269.85 263.146 272.25C267.146 280.25 270.546 289.25 273.346 299.25C276.546 309.25 278.146 320.65 278.146 333.45C278.146 344.25 276.146 354.45 272.146 364.05C268.146 373.25 262.746 377.85 255.946 377.85C249.146 377.85 243.746 373.25 239.746 364.05C235.746 354.45 233.746 344.25 233.746 333.45C233.746 320.65 235.146 309.25 237.946 299.25C241.146 289.25 244.746 280.25 248.746 272.25C247.546 269.85 245.946 266.85 243.946 263.25C239.146 254.85 234.746 246.25 230.746 237.45C227.146 228.65 225.346 218.85 225.346 208.05C225.346 188.85 232.746 169.85 247.546 151.05C242.346 145.05 236.146 138.85 228.946 132.45L161.746 73.05L135.346 461.25C135.346 465.25 133.146 467.25 128.746 467.25ZM254.746 256.65L255.946 259.05L257.146 256.65C261.546 248.65 265.346 240.85 268.546 233.25C272.146 225.25 273.946 216.85 273.946 208.05C273.946 192.45 267.946 176.65 255.946 160.65C243.946 176.65 237.946 192.45 237.946 208.05C237.946 216.85 239.546 225.25 242.746 233.25C246.346 240.85 250.346 248.65 254.746 256.65ZM246.346 333.45C246.346 340.25 247.346 346.85 249.346 353.25C251.346 359.65 253.546 363.45 255.946 364.65C257.946 363.45 259.946 359.65 261.946 353.25C264.346 346.85 265.546 340.25 265.546 333.45C265.546 324.25 264.546 315.85 262.546 308.25C260.946 300.65 258.746 293.45 255.946 286.65C253.146 293.45 250.746 300.65 248.746 308.25C247.146 315.85 246.346 324.25 246.346 333.45Z" fill="white"/>
<defs>
<linearGradient id="paint0_linear_277_2" x1="-38" y1="-71.5" x2="268" y2="562.5" gradientUnits="userSpaceOnUse">
<stop stop-color="#2D2714"/>
<stop offset="0.0001" stop-color="#2F270E"/>
<stop offset="0.315884" stop-color="#1C1708"/>
<stop offset="1"/>
</linearGradient>
</defs>
</svg>
