<svg width="512" height="512" viewBox="0 0 512 512" fill="none" xmlns="http://www.w3.org/2000/svg">
<rect width="512" height="512" fill="url(#paint0_linear_277_2)"/>
<path d="M128.746 467C124.746 467 122.746 465 122.746 461L150.346 59C150.346 55 152.346 53 156.346 53C158.346 53 160.146 53.8 161.746 55.4L236.746 122.6C243.946 129 250.346 135.2 255.946 141.2C261.546 135.2 267.946 129 275.146 122.6L350.146 55.4C351.746 53.8 353.546 53 355.546 53C359.546 53 361.546 55 361.546 59L389.146 461C389.146 465 387.146 467 383.146 467C378.746 467 376.546 465 376.546 461L350.146 72.8L282.946 132.2C275.746 138.6 269.546 144.8 264.346 150.8C272.346 160.8 277.946 170.4 281.146 179.6C284.746 188.8 286.546 198.2 286.546 207.8C286.546 218.6 284.546 228.4 280.546 237.2C276.946 246 272.746 254.6 267.946 263C265.946 266.6 264.346 269.6 263.146 272C267.146 280 270.546 289 273.346 299C276.546 309 278.146 320.4 278.146 333.2C278.146 344 276.146 354.2 272.146 363.8C268.146 373 262.746 377.6 255.946 377.6C249.146 377.6 243.746 373 239.746 363.8C235.746 354.2 233.746 344 233.746 333.2C233.746 320.4 235.146 309 237.946 299C241.146 289 244.746 280 248.746 272C247.546 269.6 245.946 266.6 243.946 263C239.146 254.6 234.746 246 230.746 237.2C227.146 228.4 225.346 218.6 225.346 207.8C225.346 188.6 232.746 169.6 247.546 150.8C242.346 144.8 236.146 138.6 228.946 132.2L161.746 72.8L135.346 461C135.346 465 133.146 467 128.746 467ZM254.746 256.4L255.946 258.8L257.146 256.4C261.546 248.4 265.346 240.6 268.546 233C272.146 225 273.946 216.6 273.946 207.8C273.946 192.2 267.946 176.4 255.946 160.4C243.946 176.4 237.946 192.2 237.946 207.8C237.946 216.6 239.546 225 242.746 233C246.346 240.6 250.346 248.4 254.746 256.4ZM246.346 333.2C246.346 340 247.346 346.6 249.346 353C251.346 359.4 253.546 363.2 255.946 364.4C257.946 363.2 259.946 359.4 261.946 353C264.346 346.6 265.546 340 265.546 333.2C265.546 324 264.546 315.6 262.546 308C260.946 300.4 258.746 293.2 255.946 286.4C253.146 293.2 250.746 300.4 248.746 308C247.146 315.6 246.346 324 246.346 333.2Z" fill="white"/>
<defs>
<linearGradient id="paint0_linear_277_2" x1="-38" y1="-71.5" x2="268" y2="562.5" gradientUnits="userSpaceOnUse">
<stop stop-color="#2D2714"/>
<stop offset="0.0001" stop-color="#2F270E"/>
<stop offset="0.315884" stop-color="#1C1708"/>
<stop offset="1"/>
</linearGradient>
</defs>
</svg>
